<svg id="Слой_1" data-name="Слой 1" xmlns="http://www.w3.org/2000/svg" viewBox="0 0 3000 2000"><defs><style>.cls-1{fill:#006cff;}.cls-2{fill:#003e80;}</style></defs><path class="cls-1" d="M728.89,771.06a49.72,49.72,0,0,0-9.65,1.55,42.35,42.35,0,0,0-8.77,3.36,35.89,35.89,0,0,0-7.47,5.18,30.72,30.72,0,0,0-5.71,7l0,.1-.06.09,0,.1-.06.09c-4.24,7.19-8.62,14.62-12.66,22.35a174.12,174.12,0,0,0-10.83,24.74,106.47,106.47,0,0,0-5.67,27.6,91.41,91.41,0,0,0,3.28,30.74c.25.87.52,1.78.82,2.74s.63,2,1,3,.76,2.13,1.2,3.25.91,2.29,1.43,3.48a14.77,14.77,0,0,0,3.39,4.9,16.38,16.38,0,0,0,4.82,3.19,19,19,0,0,0,5.61,1.48,19.84,19.84,0,0,0,5.76-.21,18.27,18.27,0,0,0,3.95-1.21,16.1,16.1,0,0,0,3.46-2.07,13.88,13.88,0,0,0,2.75-2.92,13.68,13.68,0,0,0,1.82-3.74q1.78-5.82,3.88-11.77c1.39-3.92,2.87-7.87,4.47-11.85s3.26-7.88,5.07-11.84,3.68-7.83,5.69-11.75c2.39-4.64,4.83-9,7.28-13.2s4.86-8,7.3-11.62,4.8-7,7.17-10.18,4.66-6.09,6.92-8.85c1,.18,2.15.39,3.29.62s2.31.5,3.52.79,2.45.62,3.73,1,2.58.75,3.92,1.18q3.09,1,5.88,2.09t5.27,2.21q2.49,1.13,4.66,2.25c1.45.74,2.79,1.47,4,2.17,1-.77,2.14-1.57,3.38-2.38s2.59-1.63,4.07-2.43,3-1.57,4.76-2.32,3.52-1.43,5.46-2.07c1-.34,2.08-.65,3.1-.93s2-.52,3-.74,1.92-.4,2.84-.57,1.81-.31,2.68-.43c-2.59-2.21-5.49-4.59-8.69-7.08s-6.71-5.1-10.53-7.76-7.95-5.38-12.4-8.11-9.24-5.48-14.35-8.19q-2.09-1.09-4.16-2.15c-1.38-.7-2.75-1.37-4.11-2s-2.71-1.31-4-1.93-2.68-1.23-4-1.81a62.61,62.61,0,0,0-6.81-2.56,61.84,61.84,0,0,0-6.9-1.68,56.12,56.12,0,0,0-6.88-.83,54.45,54.45,0,0,0-6.76,0"/><path class="cls-1" d="M877.82,999.22a12.1,12.1,0,0,0-3.13,1.47,11.57,11.57,0,0,0-2.61,2.39,12.51,12.51,0,0,0-1.91,3.29,15.58,15.58,0,0,0-1,4.2c-.43,4.37-.95,8.9-1.58,13.56s-1.35,9.57-2.2,14.57-1.83,10.25-2.94,15.6-2.38,11-3.79,16.66q-2.58,10.43-5.55,20.38-3,10.11-6.29,19.69c-2.21,6.48-4.52,12.77-6.87,18.86s-4.81,12.13-7.27,17.87c-1.32,0-2.71,0-4.15,0s-2.95-.1-4.5-.21-3.17-.27-4.84-.48-3.37-.48-5.13-.8c-2.71-.51-5.31-1.12-7.79-1.81s-4.84-1.46-7.07-2.27-4.33-1.68-6.29-2.55-3.79-1.77-5.47-2.65c-1.39,1.77-3,3.66-4.68,5.62s-3.66,4-5.77,6.09-4.43,4.23-6.94,6.35-5.27,4.26-8.21,6.34c-1.6,1.12-3.19,2.18-4.75,3.17s-3.12,1.93-4.63,2.8-3,1.68-4.48,2.43-2.88,1.45-4.26,2.09c3.8,3.57,8.09,7.36,12.85,11.26s10,7.92,15.72,11.92,11.91,8,18.57,11.78a238.62,238.62,0,0,0,21.33,10.85q3.09,1.38,6.12,2.63t6,2.38c2,.76,3.95,1.47,5.89,2.15s3.87,1.32,5.77,1.92a48.63,48.63,0,0,0,9.66,2,46.21,46.21,0,0,0,9.48,0,46.83,46.83,0,0,0,9.1-1.87,49.24,49.24,0,0,0,8.56-3.59,54,54,0,0,0,11.41-8.19,61.71,61.71,0,0,0,9.37-11.1,69.47,69.47,0,0,0,6.92-13.47,78.08,78.08,0,0,0,4.14-15.38l0-.2,0-.19,0-.19,0-.2c2.32-14.36,4.6-28.44,6.35-42.22a374.36,374.36,0,0,0,3.17-39.39,204.14,204.14,0,0,0-2.35-37,152.31,152.31,0,0,0-10-35.11c-.39-.93-.81-1.9-1.26-2.9s-.93-2.06-1.45-3.15-1.07-2.2-1.66-3.36-1.21-2.34-1.87-3.56a19.22,19.22,0,0,0-3.72-4.86,16.15,16.15,0,0,0-4.53-3,14.54,14.54,0,0,0-4.87-1.22,13.27,13.27,0,0,0-4.76.53"/><path class="cls-1" d="M835.73,826.41c-4.77.59-9.49,1.37-14.12,2.39a112.81,112.81,0,0,0-13.73,3.92,90.42,90.42,0,0,0-13.14,5.91A80.69,80.69,0,0,0,782.39,847c-.57.47-1.16,1-1.77,1.52s-1.26,1.11-1.91,1.72-1.32,1.27-2,2-1.39,1.42-2.09,2.19a9.74,9.74,0,0,0-2.67,7.12,13,13,0,0,0,2.78,7.26,17,17,0,0,0,6.73,5.26,16,16,0,0,0,9,1.16h.1l.59-.1.58-.1.59-.1.59-.1c3.63-.59,7.35-1.15,11.16-1.65s7.64-.94,11.58-1.33,7.9-.7,12-.95,8.14-.43,12.32-.54q7.89-.19,15.28,0c4.89.09,9.62.3,14.19.58s8.89.65,13.09,1.08,8.17.92,12,1.45c.52.83,1.06,1.7,1.6,2.62s1.08,1.87,1.62,2.88,1.09,2,1.62,3.13,1.06,2.21,1.58,3.38q1.19,2.72,2.11,5.26c.62,1.71,1.15,3.35,1.61,4.92s.86,3.09,1.19,4.52.61,2.78.84,4c1.38.48,2.88,1,4.47,1.67s3.26,1.37,5,2.21,3.58,1.77,5.47,2.82,3.83,2.23,5.82,3.54c1.08.7,2.11,1.41,3.1,2.12s2,1.42,2.87,2.13,1.8,1.4,2.63,2.1,1.64,1.37,2.4,2c.1-3.1.11-6.5,0-10.18s-.34-7.55-.74-11.7-1-8.45-1.76-13-1.77-9.19-3-14.07c-.34-1.31-.69-2.62-1.05-3.9s-.72-2.54-1.1-3.78-.76-2.47-1.15-3.67-.79-2.38-1.19-3.55a48,48,0,0,0-7.53-13.65,55.79,55.79,0,0,0-11.31-10.87,54.39,54.39,0,0,0-13.77-7.25,45,45,0,0,0-15-2.65h-.44c-3.63,0-7.3,0-11,.06s-7.45.11-11.18.23-7.52.3-11.26.56-7.53.62-11.25,1.08"/><path class="cls-1" d="M580.11,1007.93c-2,4.79-4.06,10.13-6.09,16s-4.11,12.45-6,19.47-3.73,14.79-5.28,23-2.89,17.15-3.83,26.49c-.25,2.57-.48,5.12-.67,7.64s-.34,5-.47,7.54-.22,5-.29,7.41-.1,4.87-.11,7.27a62.94,62.94,0,0,0,6.14,27.92,56,56,0,0,0,17.08,20.66A59,59,0,0,0,605.66,1182a70,70,0,0,0,29.62-1.38l.22-.06.22-.06.21,0,.22-.06c7.24-1.88,14.44-3.74,21.56-5.64s14-3.81,20.91-5.82,13.53-4.08,20.12-6.3,12.94-4.53,19.21-7c7.85-3.15,15.48-6.59,22.82-10.4a193.31,193.31,0,0,0,20.84-12.44,161.09,161.09,0,0,0,18.58-14.86,147.66,147.66,0,0,0,16.08-17.59q1.07-1.36,2.19-2.91c.76-1,1.53-2.1,2.31-3.23s1.59-2.32,2.4-3.56,1.62-2.54,2.45-3.9a19.44,19.44,0,0,0,2.84-11.39,19.81,19.81,0,0,0-3.56-10.13,17.72,17.72,0,0,0-8-6.42,15.6,15.6,0,0,0-10.76-.14H786l-.71.24-.71.25-.71.24-.72.24q-6.72,2.25-14,4.41t-15.15,4.2q-7.92,2-16.38,3.9T720,1075.61q-11.64,2.06-22.92,3.48t-22.32,2.33q-11,.9-21.45,1.29t-20.32.4q-.84-2.08-1.65-4.38t-1.56-4.8q-.75-2.49-1.41-5.19t-1.2-5.59c-.56-3-1-5.83-1.26-8.6s-.45-5.41-.53-7.94-.06-4.92,0-7.18.22-4.37.41-6.34c-2.13-.55-4.41-1.21-6.82-2s-5-1.71-7.57-2.8-5.33-2.32-8.09-3.74-5.56-3-8.37-4.83c-1.51-1-3-2-4.33-3s-2.68-2-3.92-3-2.4-2-3.51-3-2.14-1.94-3.11-2.88"/><path class="cls-1" d="M865.66,901.3a9.85,9.85,0,0,0-5.36,3,10.47,10.47,0,0,0-2.58,5.45,13,13,0,0,0,.75,6.63,16.58,16.58,0,0,0,4.62,6.46q4.65,4.09,9.45,8.56t9.71,9.34q4.92,4.88,9.93,10.16t10.11,11q6.13,6.92,11.7,13.76c3.73,4.56,7.28,9.09,10.66,13.54s6.61,8.89,9.65,13.21,6,8.58,8.68,12.71c-.38,1-.78,2-1.23,3s-.93,2.07-1.46,3.14-1.11,2.17-1.73,3.28-1.3,2.25-2,3.39c-1.13,1.76-2.29,3.41-3.46,4.93s-2.37,3-3.55,4.27-2.37,2.52-3.52,3.62-2.29,2.1-3.36,3q1,2.61,2.09,5.69c.71,2.07,1.4,4.29,2,6.66s1.28,4.9,1.83,7.57,1,5.51,1.44,8.48c.21,1.6.38,3.17.52,4.7s.25,3,.32,4.47.12,2.86.14,4.22,0,2.68,0,3.94c3.34-1.6,6.93-3.45,10.69-5.6s7.61-4.55,11.58-7.29,7.93-5.74,11.94-9.13A153.94,153.94,0,0,0,977,1056.41c1-1.1,2.06-2.19,3.05-3.29s1.93-2.18,2.86-3.27,1.82-2.17,2.69-3.25,1.7-2.15,2.51-3.22a37.56,37.56,0,0,0,6.79-15.41,50.25,50.25,0,0,0,.29-17.54,61.44,61.44,0,0,0-5.53-17.58A65,65,0,0,0,978.83,977l-.1-.1-.09-.1a.94.94,0,0,0-.1-.1l-.09-.1c-7.24-7.74-14.49-15.49-21.87-22.91s-14.84-14.46-22.62-20.9a174.69,174.69,0,0,0-24.38-17.14A123.15,123.15,0,0,0,882.12,904c-.79-.23-1.63-.46-2.51-.69s-1.8-.46-2.76-.69l-3-.66c-1.05-.21-2.13-.42-3.26-.62a12.56,12.56,0,0,0-1.32-.17,10.79,10.79,0,0,0-1.26,0,11.71,11.71,0,0,0-1.19.06c-.39,0-.77.1-1.14.17"/><path class="cls-1" d="M654.6,835.26c-4.16.59-8.73,1.34-13.67,2.29s-10.32,2.12-16,3.54-11.8,3.15-18.15,5.17-13.15,4.44-20.12,7.21c-1.92.77-3.81,1.54-5.68,2.33s-3.71,1.59-5.53,2.4-3.62,1.63-5.4,2.46-3.53,1.67-5.25,2.52a63.48,63.48,0,0,0-18.57,13.57,50.28,50.28,0,0,0-10.92,17.92,41.86,41.86,0,0,0-1.83,20.05,42.62,42.62,0,0,0,8.57,19.55l.1.13.1.13.1.13a.64.64,0,0,1,.1.13c7.69,9.91,15.51,20,23.87,29.79a277.2,277.2,0,0,0,27.21,28.09,173.4,173.4,0,0,0,32.57,23A143.64,143.64,0,0,0,665.36,1030c1.15.24,2.36.47,3.63.7s2.61.45,4,.66,2.85.41,4.37.59,3.08.35,4.71.49a17.54,17.54,0,0,0,1.91.08c.62,0,1.24,0,1.84-.09a17,17,0,0,0,1.78-.25c.58-.11,1.15-.24,1.71-.4a19.55,19.55,0,0,0,8.46-5,19.78,19.78,0,0,0,4.83-8,17,17,0,0,0,.37-9,16.35,16.35,0,0,0-4.92-8.24q-5.44-5-11-10.54t-11-11.4q-5.49-5.91-10.94-12.26t-10.73-13.1q-6.35-8.1-11.84-16t-10.15-15.24q-4.67-7.41-8.61-14.4c-2.61-4.62-5-9.1-7.19-13.4.88-.89,1.82-1.81,2.81-2.75s2-1.88,3.14-2.83,2.26-1.92,3.49-2.89,2.49-1.92,3.83-2.88q3.11-2.22,6.11-4.06c2-1.22,4-2.33,5.84-3.33s3.71-1.89,5.45-2.69,3.39-1.5,5-2.13c-.35-1.54-.68-3.2-1-5s-.48-3.68-.61-5.67-.16-4.08-.08-6.25a59.37,59.37,0,0,1,.62-6.71c.18-1.24.4-2.44.65-3.6s.51-2.27.8-3.34.61-2.09.93-3.07.66-1.91,1-2.8"/><path class="cls-2" d="M1118.06,879.56l.06-.65H1094l-18,205.46a14.58,14.58,0,0,0,14.75,16.17h105.52l1.93-22h-97.54Z"/><path class="cls-2" d="M1304.87,934.16c-24.45,0-45.62,9-61.21,26.05-13.71,15-22.31,35.31-24.23,57.24l-.37,4.22c-2.17,24.79,4.5,47.64,18.29,62.69,13,14.14,31.27,21.31,54.43,21.31,38,0,66.41-19.58,76.09-52.37l.22-.76h-22.37l-.14.42c-6.8,21.82-31,31.59-52,31.59-15.9,0-28.49-4.74-37.42-14.07-10.12-10.56-15-26.58-14.3-46.34h131.34l1.08-12.33c1.93-22.12-4.36-42.89-17.26-57C1344.58,941.31,1326.56,934.16,1304.87,934.16Zm-60.44,71.27c7.56-31.88,28.92-50.15,58.7-50.15s48.07,18.73,48.65,50.15Z"/><path class="cls-2" d="M1469.7,934.76c-35.36,0-60.8,19.15-63.3,47.66-2.16,24.69,14.36,40.88,45.32,44.43l18,1.81c22.76,2.45,33.18,10.93,31.87,25.93-1.59,18.2-19.24,30-45,30-15.11,0-26.63-3.71-33.3-10.71a24.93,24.93,0,0,1-6.65-18.87l0-.62h-22.32l0,.56c-.91,13.58,2.67,24.81,10.67,33.36,10.27,11,27.53,16.8,49.92,16.8,38.19,0,66.67-20.59,69.25-50.07,2.27-26-15.9-42.52-51.18-46.55l-18-1.81c-18.47-2-27.22-10-26-23.82,1.16-13.31,12-27.54,39-27.54,12.77,0,22.61,3.32,28.47,9.59a22,22,0,0,1,5.7,17l0,.63h22.33l0-.55c.87-12.89-2.53-23.52-10.11-31.62C1504.91,940.13,1489.45,934.76,1469.7,934.76Z"/><path class="cls-2" d="M1624.92,934.76c-35.37,0-60.81,19.15-63.3,47.66-2.16,24.69,14.36,40.88,45.32,44.43l18,1.81c22.76,2.45,33.18,10.93,31.87,25.93-1.59,18.2-19.24,30-45,30-15.11,0-26.63-3.71-33.3-10.71a24.85,24.85,0,0,1-6.65-18.87l0-.62h-22.32l0,.56c-.92,13.58,2.67,24.81,10.67,33.36,10.27,11,27.53,16.8,49.92,16.8,38.19,0,66.67-20.59,69.25-50.07,2.27-26-15.9-42.52-51.18-46.55l-18-1.81c-18.47-2-27.22-10-26-23.82,1.17-13.31,12-27.54,39-27.54,12.77,0,22.61,3.32,28.47,9.59a22,22,0,0,1,5.7,17l0,.63h22.33l0-.55c.87-12.89-2.53-23.52-10.11-31.62C1660.13,940.13,1644.67,934.76,1624.92,934.76Z"/><path class="cls-2" d="M1853.92,972.21c-9.46-24.22-31.12-38.05-59.84-38.05a81.9,81.9,0,0,0-58.71,24.45,92.59,92.59,0,0,0-26,57l-.37,4.22c-2.08,23.77,4.89,46.31,19.12,61.84,12.74,13.9,30.16,21.25,50.36,21.25,26.51,0,49.36-12.68,63.1-34.89l-1.33,15.22c-3.78,43.19-21.81,59.25-66.54,59.25a324.06,324.06,0,0,1-44.89-3.62l-.63-.09-1.8,20.51.56.09a291.48,291.48,0,0,0,43.86,3.63c61.46,0,87.38-22.59,92.45-80.57l12.45-142.24,0-.64h-19Zm-6.86,37.08-1.3,14.8c-2.88,32.93-28.74,56.83-61.5,56.83-15.43,0-28.45-5.3-37.64-15.32-10.44-11.4-15.26-28.36-13.56-47.75,3.25-37.19,28.89-63.17,62.35-63.17,16.1,0,30.18,5.7,39.67,16.05C1844.25,980.74,1848.39,994.07,1847.06,1009.29Z"/><path class="cls-2" d="M1992.89,934.16c-31.61,0-52.66,14.24-64.75,26.18-15.54,15.35-25.52,36.27-27.37,57.41l-.37,4.23c-2,22.66,5,44.57,19.28,60.1s34.3,23.59,58.31,23.59c55.08,0,88.56-43.07,92.11-83.59l.37-4.23c2-22.49-5.09-44.33-19.37-59.92S2016.72,934.16,1992.89,934.16Zm53.86,85.7c-1.56,17.79-8.65,33.94-20,45.46-12.15,12.38-28.42,18.92-47,18.92-17.16,0-31.46-5.7-41.34-16.49-10.7-11.67-15.67-28.64-14-47.78,1.56-17.86,8.76-34,20.26-45.53,12.13-12.14,28.18-18.55,46.4-18.55,17.24,0,31.66,5.78,41.69,16.73C2043.43,984.25,2048.4,1001,2046.75,1019.86Z"/><polygon class="cls-2" points="2094.35 1100.54 2123.94 1100.54 2126.66 1069.45 2097.07 1069.45 2094.35 1100.54"/><path class="cls-2" d="M2234.16,937.78c-12.59,0-28.49.79-42.52,2.12l-.5.05-1.85,21.14.72-.07c13.37-1.26,33.69-2.11,50.56-2.11,12.77,0,22.14,3.15,27.83,9.36,5.48,6,7.74,15,6.7,26.83l-.61,7h-44.15c-40.26,0-65,18.46-67.79,50.67-1.3,14.87,2.36,27.48,10.59,36.46,9.31,10.16,24,15.53,42.59,15.53,26.63,0,46.49-11.82,56.32-33.4l-2.55,29.17h19.32l9-103.22c1.74-19.94-1.61-34.22-10.25-43.65C2277.67,942.83,2260.69,937.78,2234.16,937.78Zm-48.4,115.41c1.76-20.16,17.69-32.68,41.57-32.68h45.55l-1.79,20.48c-4.94,40.13-36.3,44.46-49.55,44.46-12.87,0-23-3.59-29.2-10.39C2187.27,1069.52,2185,1062,2185.76,1053.19Z"/><polygon class="cls-2" points="2334.74 958.91 2360.4 958.91 2348.07 1099.89 2348.01 1100.54 2371.56 1100.54 2385.58 940.25 2385.64 939.6 2336.43 939.6 2334.74 958.91"/><polygon class="cls-2" points="2387 879.55 2357.41 879.55 2354.69 910.64 2384.28 910.64 2387 879.55"/></svg>